<?xml version="1.0" encoding="utf-8"?>
<!-- Generator: Adobe Illustrator 21.0.0, SVG Export Plug-In . SVG Version: 6.00 Build 0)  -->
<svg version="1.1" id="圖層_1" xmlns="http://www.w3.org/2000/svg" xmlns:xlink="http://www.w3.org/1999/xlink" x="0px" y="0px"
	 viewBox="0 0 393.3 342.7" style="enable-background:new 0 0 393.3 342.7;" xml:space="preserve">
<style type="text/css">
	.st0{fill:#01938E;}
	.st1{fill:#02938E;}
</style>
<g>
	<path class="st0" d="M49,160.2c23.8-8.7,47.5-17.4,71.3-26.1c0.7-0.3,1.3-0.2,2,0.2c21.9,12.7,43.9,25.3,65.8,38
		c0.3,0.2,0.5,0.3,0.8,0.5c-0.3,0.5-0.8,0.6-1.1,0.8c-21.7,12.5-43.4,25-65.2,37.6c-0.9,0.5-1.6,0.6-2.6,0.2
		c-23.2-8.5-46.4-17-69.6-25.5c-0.4-0.2-0.9-0.3-1.3-0.4C49,177,49,168.6,49,160.2z M49.1,172.8c0.6,0.2,0.8,0.4,1.1,0.5
		c23.1,8.4,46.1,16.9,69.2,25.3c0.6,0.2,1.1,0.1,1.6-0.2c13.3-7.6,26.5-15.3,39.8-22.9c1.4-0.8,2.9-1.7,4.5-2.6
		c-0.4-0.3-0.7-0.5-1-0.6c-14.4-8.3-28.9-16.6-43.3-25c-0.7-0.4-1.3-0.3-2-0.1c-19.3,7.1-38.6,14.2-57.9,21.2
		C57.2,169.8,53.3,171.2,49.1,172.8z"/>
	<path class="st1" d="M49,194.1c0.2,0.1,0.4,0.2,0.5,0.2c-0.4,0.3-0.3,0.8-0.3,1.3c0,3.7,0,7.4,0,11.1c-0.1,0-0.2,0-0.2,0.1
		C49,202.6,49,198.3,49,194.1z"/>
	<path class="st1" d="M49,138.6c0.1,0.1,0.2,0.2,0.2,0.3c0,4.1,0,8.2,0,12.3c-0.1,0-0.2,0.1-0.2,0.1C49,147,49,142.8,49,138.6z"/>
	<path class="st1" d="M193.4,180.4c0,0.6,0,1,0,1.4c0,25.2,0,50.3,0,75.5c0,0.9-0.2,1.5-1,2.1c-19.1,15.9-38.3,31.9-57.4,47.8
		c-0.6,0.5-1,0.6-1.8,0.2c-6.7-3.9-13.3-7.8-20-11.6c-0.6-0.4-0.8-0.6-0.7-1.4c3.4-19.5,6.8-38.9,10.2-58.4
		c0.9-5.2,1.8-10.3,2.7-15.5c0.1-0.8,0.5-1.2,1.1-1.6c17.8-10.2,35.5-20.5,53.3-30.7c4.1-2.4,8.1-4.7,12.2-7
		C192.5,180.9,192.8,180.7,193.4,180.4z M123.4,301.5c0.5-0.4,0.8-0.6,1-0.8c18.8-15.7,37.5-31.3,56.3-47c0.6-0.5,0.9-1,0.9-1.9
		c0-16.5,0-33,0-49.5c0-0.4,0-0.8,0-1.2c-0.3,0.1-0.4,0.1-0.5,0.2c-14.7,8.5-29.4,16.9-44,25.4c-0.5,0.3-0.7,0.6-0.8,1.2
		c-1.4,8.1-2.8,16.2-4.2,24.4c-2.4,13.5-4.7,27-7.1,40.6C124.5,295.5,124,298.3,123.4,301.5z"/>
	<path class="st1" d="M193.4,125.9c0,12.6,0,25.2,0,37.8c0,1.5,0,1.5-1.2,0.8c-21.9-12.6-43.7-25.3-65.6-37.9
		c-0.7-0.4-1-0.8-1.1-1.6c-2.5-14.6-5.1-29.3-7.6-43.9c-1.7-10-3.5-20-5.2-30c-0.1-0.8,0.1-1.1,0.7-1.4c6.7-3.8,13.5-7.7,20.2-11.6
		c0.7-0.4,1.1-0.3,1.6,0.2c19.1,16,38.3,32,57.4,48c0.7,0.6,0.9,1.2,0.9,2C193.4,100.8,193.4,113.3,193.4,125.9z M123.5,44.1
		c0,0.5,0,0.9,0.1,1.2c1.7,9.6,3.3,19.2,5,28.8c2.5,14.5,5.1,28.9,7.6,43.4c0.1,0.8,0.4,1.2,1.1,1.6c14.3,8.3,28.6,16.5,43,24.8
		c1.3,0.7,1.3,0.7,1.3-0.7c0-16.5,0-33,0-49.4c0-0.9-0.3-1.5-1-2.1C163,77,145.5,62.4,127.9,47.7C126.5,46.6,125.1,45.4,123.5,44.1z
		"/>
	<path class="st0" d="M206.4,172.8c3-1.7,5.9-3.4,8.8-5.1c19.3-11.1,38.5-22.2,57.8-33.3c0.8-0.5,1.5-0.5,2.3-0.2
		c23.3,8.6,46.6,17.1,69.9,25.6c1,0.4,1.3,0.8,1.3,1.8c-0.1,7.6-0.1,15.1,0,22.7c0,0.9-0.3,1.3-1.1,1.6
		c-23.5,8.6-46.9,17.1-70.3,25.7c-0.5,0.2-1,0.3-1.5-0.1c-22.2-12.8-44.4-25.6-66.5-38.4C206.8,173,206.7,173,206.4,172.8z
		 M346.2,172.8c-0.7-0.3-1-0.4-1.3-0.5c-22.9-8.4-45.7-16.7-68.6-25.1c-0.7-0.3-1.4-0.3-2.1,0.1c-14.4,8.3-28.8,16.6-43.2,24.9
		c-0.3,0.2-0.6,0.2-0.7,0.7c0.2,0.1,0.5,0.3,0.7,0.4c14.4,8.3,28.9,16.7,43.3,25c0.7,0.4,1.2,0.4,1.9,0.1c19-7,38.1-14,57.1-20.9
		C337.6,176,341.7,174.5,346.2,172.8z"/>
	<path class="st0" d="M272,44.1c0.4-0.1,0.7,0.2,1,0.3c3,1.7,6.1,3.5,9.1,5.2c0.7,0.4,0.9,0.9,0.8,1.7c-1.9,11-3.9,22.1-5.8,33.2
		c-2.2,12.6-4.5,25.2-6.5,37.8c-0.4,2.6-1.4,4.3-3.8,5.7c-21.2,12.1-42.3,24.3-63.4,36.5c-0.4,0.2-0.7,0.4-1.1,0.6
		c-0.2-0.4-0.1-0.7-0.1-1.1c0-25.3,0-50.6,0-75.8c0-0.8,0.3-1.4,0.9-1.9c19.1-15.9,38.3-31.9,57.4-47.9c0.7-0.5,1.1-0.7,1.9-0.2
		c2.9,1.8,5.9,3.5,8.9,5.2C271.5,43.6,272,43.6,272,44.1c0,0.1-0.1,0.1-0.2,0.2c-19,15.9-38,31.8-57.1,47.6
		c-0.6,0.5-0.8,1.1-0.8,1.8c0,16.5,0,33,0,49.6c0,0.4,0,0.8,0,1.3c0.4-0.2,0.5-0.3,0.7-0.4c14.6-8.4,29.1-16.8,43.7-25.2
		c0.6-0.3,0.8-0.8,0.9-1.4c1.5-8.7,3-17.3,4.5-26c2.3-13.1,4.6-26.2,6.8-39.4C271.2,49.6,271.8,46.9,272,44.1z"/>
	<path class="st0" d="M202.2,180.3c2.8,1.6,5.4,3.1,8.1,4.7c19.5,11.3,39.1,22.6,58.6,33.8c0.8,0.4,1.1,1,1.2,1.8
		c2.3,13.5,4.7,27,7,40.5c1.9,11.1,3.9,22.1,5.8,33.1c0.1,0.8-0.1,1.2-0.8,1.5c-6.7,3.8-13.3,7.6-19.9,11.5
		c-0.7,0.4-1.2,0.4-1.8-0.2c-16.3-13.7-32.7-27.3-49.1-41c-2.8-2.4-5.6-4.7-8.5-7.1c-0.5-0.4-0.7-0.8-0.7-1.4c0-25.5,0-51.1,0-76.6
		C202.2,180.9,202.2,180.7,202.2,180.3z M214.1,200.9c0,0.4-0.1,0.6-0.1,0.7c0,16.8,0,33.7,0,50.5c0,0.7,0.3,1,0.8,1.4
		c17.3,14.5,34.7,28.9,52,43.4c1.7,1.4,3.4,2.8,5.4,4.4c-0.6-3.5-1.2-6.7-1.7-9.9c-3.7-21.1-7.3-42.2-11-63.2
		c-0.2-1-0.6-1.6-1.4-2.1c-13-7.5-26-15-39-22.5C217.4,202.8,215.8,201.9,214.1,200.9z"/>
	<path class="st1" d="M290.4,54.8c3.6,2,7,4,10.5,6c0.5,0.3,0.4,0.7,0.3,1.1c-1.3,7.5-2.6,15-4,22.5c-1.9,11-3.9,22-5.9,33
		c-0.2,1.1,0.1,1.5,1.1,1.8c17.5,6.4,35.1,12.8,52.6,19.1c1,0.3,1.3,0.8,1.3,1.8c-0.1,3.3-0.1,6.7-0.1,10c0,1.1-0.3,1.2-1.2,0.8
		c-16.4-6-32.9-12-49.4-18c-5.6-2-11.2-4.1-16.9-6.1c-0.9-0.3-1-0.8-0.9-1.6c1.2-6.7,2.4-13.5,3.6-20.2c2.2-12.5,4.4-24.9,6.6-37.4
		C288.9,63.4,289.7,59.2,290.4,54.8z"/>
	<path class="st0" d="M253.6,312.2c-3.5,2-6.9,4-10.3,6c-0.7,0.4-1,0-1.4-0.3c-8.6-7.2-17.2-14.4-25.8-21.6
		c-5.8-4.9-11.6-9.7-17.4-14.6c-0.7-0.6-1.1-0.7-1.9,0c-14.3,12.1-28.7,24.1-43.1,36.1c-0.8,0.6-1.3,0.7-2.1,0.2
		c-3.2-1.9-6.4-3.8-9.7-5.7c0.6-0.8,1.4-1.3,2.2-2c17.6-14.7,35.1-29.4,52.7-44.1c0.6-0.5,1-0.7,1.7-0.1
		c18.1,15.2,36.3,30.4,54.4,45.6C253.1,311.8,253.3,311.9,253.6,312.2z"/>
	<path class="st0" d="M253.7,33.4c-2.2,1.9-4.3,3.6-6.4,5.4c-16.2,13.5-32.4,27.1-48.5,40.6c-0.7,0.6-1.1,0.6-1.8,0
		c-18-15.1-35.9-30.1-53.9-45.2c-0.3-0.3-0.6-0.5-1-0.9c3.5-2,7-4,10.4-6c0.6-0.3,0.9,0.1,1.3,0.4c6.6,5.5,13.2,11.1,19.8,16.6
		c7.8,6.6,15.6,13.1,23.4,19.7c0.7,0.6,1,0.5,1.7,0C213,52,227.4,39.9,241.8,27.9c0.8-0.7,1.3-0.6,2.1-0.1
		C247.1,29.6,250.3,31.5,253.7,33.4z"/>
	<path class="st0" d="M346.4,194.1c0,4.1,0,8,0,12c0,0.7-0.5,0.7-0.9,0.9c-6.3,2.3-12.7,4.6-19,6.9c-11.3,4.1-22.6,8.2-33.9,12.3
		c-0.9,0.3-1.1,0.7-0.9,1.7c3.1,17.3,6.1,34.7,9.2,52c0.2,1.3,0.4,2.5,0.7,3.8c0.1,0.6,0,0.9-0.5,1.2c-3.2,1.8-6.3,3.6-9.5,5.4
		c-0.6,0.4-0.9,0.4-1-0.4c-2.1-12.3-4.3-24.5-6.4-36.8c-1.9-11-3.8-22-5.8-33c-0.2-0.9,0.1-1.1,0.8-1.4c22.1-8,44.2-16.1,66.3-24.2
		C345.6,194.3,346,194.3,346.4,194.1z"/>
	<path class="st0" d="M49.2,151.2c0-4.1,0-8.2,0-12.3c0.4-0.5,1-0.5,1.5-0.7c17.3-6.3,34.6-12.6,51.9-18.9c1.2-0.4,1.5-1,1.2-2.2
		c-2.3-12.9-4.6-25.9-6.9-38.9c-0.9-5.4-1.9-10.8-2.9-16.2c-0.1-0.8-0.1-1.3,0.7-1.7c3-1.6,6-3.3,8.9-5.1c0.9-0.5,1.2-0.5,1.4,0.6
		c1.2,7.2,2.5,14.5,3.8,21.7c2.1,12,4.2,24,6.3,35.9c0.7,3.9,1.4,7.9,2.1,11.8c0.1,0.7,0.1,1.2-0.8,1.5
		c-22.2,8.1-44.5,16.2-66.7,24.3C49.7,151.1,49.5,151.3,49.2,151.2z"/>
	<path class="st0" d="M49.2,206.7c0-3.7,0-7.4,0-11.1c0-0.4-0.2-0.9,0.3-1.3c4.7,1.7,9.4,3.3,14.1,5c17.5,6.4,35,12.8,52.5,19.1
		c1.1,0.4,1.4,0.9,1.2,2.1c-2.2,12.5-4.4,24.9-6.6,37.4c-1.9,10.9-3.8,21.8-5.8,32.8c-3.6-2-7-4-10.5-6c-0.5-0.3-0.4-0.7-0.3-1.1
		c2.1-11.8,4.2-23.6,6.3-35.5c1.2-6.7,2.4-13.5,3.6-20.2c0.2-1.1-0.3-1.4-1.1-1.7C85.4,220,68,213.6,50.6,207.3
		C50.1,207.1,49.7,206.9,49.2,206.7z"/>
</g>
</svg>
